# xmcd CD database file
#
# Track frame offsets:
#	150
#	49950
#	86887
#	125100
#	159547
#	188407
#	202550
#	227167
#	252735
#	289345
#
# Disc length: 4170 seconds
#
# Revision: 0
# Processed by: cddbd v1.4PL0 Copyright (c) Steve Scherf et al.
# Submitted via: CDex 1.51
#
DISCID=9010480a
DTITLE=Paul Chambers - Mosaic Select 5: Paul Chambers [CD2]
DYEAR=1900
DGENRE=Jazz
TTITLE0=Trane's Strain
TTITLE1=High Step
TTITLE2=Nixon, Dixon, And Yates Blues
TTITLE3=Minor Run-Down
TTITLE4=The Hand Of Love
TTITLE5=Softly As In A Morning Sunrise
TTITLE6=Four Strings
TTITLE7=What's New
TTITLE8=Beauteous
TTITLE9=Four Strings (Alternate Take)
EXTD=
EXTT0=
EXTT1=
EXTT2=
EXTT3=
EXTT4=
EXTT5=
EXTT6=
EXTT7=
EXTT8=
EXTT9=
PLAYORDER=
